<svg xmlns="http://www.w3.org/2000/svg" xmlns:svg="http://www.w3.org/2000/svg" id="svg1278" width="16" height="16" version="1.1" viewBox="0 0 16 16"><metadata id="metadata1284"/><g id="titlebutton-close-hover" transform="translate(-542,185.64)"><g id="g413" transform="translate(-781,-432.64)"><g id="g411" transform="translate(-103)"><g id="g409" transform="translate(58)"><path id="path407" d="m 172,92 c -3.866,0 -7,3.134 -7,7 0,3.866 3.134,7 7,7 3.866,0 7,-3.134 7,-7 0,-3.866 -3.134,-7 -7,-7 z" transform="translate(1204,156)" style="fill:#d31919;stroke:#8b1111;stroke-width:.5"/></g></g></g><rect id="rect415" width="16" height="16" x="542" y="-185.64" style="fill:none"/><path id="path417" d="m 547,-180.72 h 0.75 c 0.008,-9e-5 0.0156,-3.5e-4 0.0234,0 0.19122,0.008 0.3824,0.0964 0.51563,0.23437 l 1.7109,1.7109 1.7344,-1.7109 c 0.19922,-0.17287 0.335,-0.22912 0.51562,-0.23437 h 0.75 v 0.75 c 0,0.21485 -0.0257,0.41298 -0.1875,0.5625 l -1.7109,1.7109 1.6875,1.6875 c 0.14114,0.14113 0.21093,0.34009 0.21093,0.53907 v 0.75 h -0.75 c -0.19897,-1e-5 -0.39793,-0.0698 -0.53906,-0.21094 l -1.7109,-1.7109 -1.7109,1.7109 c -0.14113,0.14114 -0.3401,0.21094 -0.53907,0.21094 h -0.75 v -0.75 c 0,-0.19897 0.0698,-0.39794 0.21094,-0.53907 l 1.7109,-1.6875 -1.7109,-1.7109 c -0.15805,-0.14598 -0.22737,-0.35194 -0.21094,-0.5625 v -0.75 z" style="color:#bebebe;text-indent:0;text-decoration:none;text-decoration-line:none;text-transform:none;opacity:.5;enable-background:new"/></g></svg>