<svg xmlns="http://www.w3.org/2000/svg" xmlns:svg="http://www.w3.org/2000/svg" id="svg1278" width="16" height="16" version="1.1" viewBox="0 0 16 16"><metadata id="metadata1284"/><g id="titlebutton-maximize-hover" transform="translate(-513,185.64)"><g id="g428" transform="translate(-781,-432.64)"><path id="path420" d="m 152,92 a 7,7 0 0 0 -7,7 7,7 0 0 0 7,7 7,7 0 0 0 7,-7 7,7 0 0 0 -7,-7 z" transform="translate(1150,156)" style="fill:#377cf1;stroke:#0e53ca;stroke-width:.5"/><g id="g426" transform="translate(1294,247)" style="fill:#c0e3ff"><g id="g424" transform="translate(-81,-967)" style="fill:#c0e3ff"><path id="path422" d="m 87.8,972 h 3.3817 c 0.4503,0 0.81623,0.36847 0.81876,0.8188 v 3.3817 z m 2.4074,6.0069 h -3.3951 c -0.45035,0 -0.81876,-0.36842 -0.81876,-0.81875 v -3.3951 l 4.2138,4.2138" style="opacity:.5;fill:#000;fill-rule:evenodd"/></g></g></g><rect id="rect430" width="16" height="16" x="513" y="-185.64" style="fill:none"/></g></svg>