<svg xmlns="http://www.w3.org/2000/svg" xmlns:svg="http://www.w3.org/2000/svg" id="svg1278" width="16" height="16" version="1.1" viewBox="0 0 16 16"><metadata id="metadata1284"/><g id="titlebutton-maximize-hover-dark" transform="translate(-513,185.64)"><g id="g752" transform="translate(-781,-432.64)"><path id="path750" d="m 394,92 c -3.866,0 -7,3.134 -7,7 0,3.866 3.134,7 7,7 3.866,0 7,-3.134 7,-7 0,-3.866 -3.134,-7 -7,-7 z" transform="translate(908,156)" style="fill:#377cf1;stroke:#0e53ca;stroke-width:.5"/></g><rect id="rect754" width="16" height="16" x="513" y="-185.64" style="fill:none"/><path id="path756" d="m 519.8,-180.64 h 3.3817 c 0.4503,0 0.81623,0.36847 0.81876,0.8188 v 3.3817 z m 2.4074,6.0069 h -3.3951 c -0.45035,0 -0.81876,-0.36842 -0.81876,-0.81875 v -3.3951 l 4.2138,4.2138" style="opacity:.5;fill-rule:evenodd"/></g></svg>